<svg xmlns="http://www.w3.org/2000/svg" viewBox="0 0 100 100" width="100" height="100">
  <defs>
    <linearGradient id="wingGradient" x1="0%" y1="0%" x2="100%" y2="100%">
      <stop offset="0%" style="stop-color:#e91e63;stop-opacity:1" />
      <stop offset="50%" style="stop-color:#9c27b0;stop-opacity:1" />
      <stop offset="100%" style="stop-color:#3f51b5;stop-opacity:1" />
    </linearGradient>
    <linearGradient id="bodyGradient" x1="0%" y1="0%" x2="100%" y2="100%">
      <stop offset="0%" style="stop-color:#cddc39;stop-opacity:1" />
      <stop offset="30%" style="stop-color:#4caf50;stop-opacity:1" />
      <stop offset="70%" style="stop-color:#2196f3;stop-opacity:1" />
      <stop offset="100%" style="stop-color:#1565c0;stop-opacity:1" />
    </linearGradient>
    <linearGradient id="flowerGradient" x1="0%" y1="0%" x2="100%" y2="100%">
      <stop offset="0%" style="stop-color:#e91e63;stop-opacity:1" />
      <stop offset="100%" style="stop-color:#9c27b0;stop-opacity:1" />
    </linearGradient>
  </defs>
  
  <!-- Колибри тело -->
  <path d="M35 45 Q45 35 55 45 Q65 55 55 65 Q45 75 35 65 Q25 55 35 45" fill="url(#bodyGradient)" stroke="white" stroke-width="1"/>
  
  <!-- Левое крыло -->
  <path d="M20 35 Q10 25 15 15 Q25 20 30 30 Q35 40 25 45 Q20 40 20 35" fill="url(#wingGradient)" stroke="white" stroke-width="0.5"/>
  
  <!-- Правое крыло -->
  <path d="M55 30 Q65 20 75 25 Q80 35 75 45 Q65 50 55 45 Q50 35 55 30" fill="url(#wingGradient)" stroke="white" stroke-width="0.5"/>
  
  <!-- Клюв -->
  <path d="M55 45 L75 40 Q80 42 75 44 L55 50 Q55 47.5 55 45" fill="#1565c0" stroke="white" stroke-width="0.5"/>
  
  <!-- Глаз -->
  <circle cx="50" cy="42" r="2" fill="white"/>
  <circle cx="51" cy="42" r="1.5" fill="#1565c0"/>
  
  <!-- Хвост -->
  <path d="M35 65 Q25 75 15 70 Q20 65 25 60 Q30 65 35 65" fill="url(#bodyGradient)" stroke="white" stroke-width="0.5"/>
  
  <!-- Цветок -->
  <g transform="translate(70,55)">
    <!-- Лепестки -->
    <path d="M0 0 Q-3 -5 0 -8 Q3 -5 0 0" fill="url(#flowerGradient)"/>
    <path d="M0 0 Q5 -3 8 0 Q5 3 0 0" fill="url(#flowerGradient)"/>
    <path d="M0 0 Q3 5 0 8 Q-3 5 0 0" fill="url(#flowerGradient)"/>
    <path d="M0 0 Q-5 3 -8 0 Q-5 -3 0 0" fill="url(#flowerGradient)"/>
    <!-- Центр цветка -->
    <circle cx="0" cy="0" r="2" fill="#ff9800"/>
    <!-- Листья -->
    <path d="M-8 8 Q-12 12 -8 16 Q-4 12 -8 8" fill="#4caf50"/>
    <path d="M8 8 Q12 12 8 16 Q4 12 8 8" fill="#4caf50"/>
  </g>
</svg>